<?xml version="1.0" encoding="UTF-8"?>
<svg xmlns="http://www.w3.org/2000/svg" xmlns:xlink="http://www.w3.org/1999/xlink" width="100pt" height="100pt" viewBox="0 0 100 100" version="1.1">
<g id="surface1">
<path style=" stroke:none;fill-rule:nonzero;fill:rgb(0%,0%,0%);fill-opacity:1;" d="M 11.289062 83.871094 C 8.621094 83.871094 6.453125 86.042969 6.453125 88.710938 C 6.453125 91.378906 8.621094 93.546875 11.289062 93.546875 C 13.957031 93.546875 16.128906 91.378906 16.128906 88.710938 C 16.128906 86.042969 13.957031 83.871094 11.289062 83.871094 Z M 11.289062 90.324219 C 10.402344 90.324219 9.675781 89.597656 9.675781 88.710938 C 9.675781 87.820312 10.402344 87.097656 11.289062 87.097656 C 12.179688 87.097656 12.902344 87.820312 12.902344 88.710938 C 12.902344 89.597656 12.179688 90.324219 11.289062 90.324219 Z M 11.289062 90.324219 "/>
<path style=" stroke:none;fill-rule:nonzero;fill:rgb(0%,0%,0%);fill-opacity:1;" d="M 100 11.878906 C 100 5.328125 94.671875 0 88.121094 0 C 84.949219 0 81.96875 1.234375 79.722656 3.480469 L 73.980469 9.222656 C 72.722656 8.488281 71.300781 8.066406 69.804688 8.066406 C 66.949219 8.066406 64.328125 9.503906 62.792969 11.914062 L 52.78125 27.644531 L 55.78125 30.644531 L 51.613281 34.816406 L 50.527344 33.730469 C 49.578125 32.78125 48.316406 32.257812 46.96875 32.257812 C 44.195312 32.257812 41.933594 34.515625 41.933594 37.292969 C 41.933594 38.617188 42.472656 39.914062 43.410156 40.851562 L 44.492188 41.933594 L 40.324219 46.105469 L 39.238281 45.023438 C 38.289062 44.070312 37.023438 43.546875 35.679688 43.546875 C 32.902344 43.546875 30.644531 45.804688 30.644531 48.582031 C 30.644531 49.90625 31.183594 51.203125 32.121094 52.140625 L 33.203125 53.226562 L 29.03125 57.398438 L 27.949219 56.3125 C 26.996094 55.363281 25.734375 54.839844 24.390625 54.839844 C 21.613281 54.839844 19.355469 57.097656 19.355469 59.871094 C 19.355469 61.199219 19.890625 62.496094 20.828125 63.433594 L 21.914062 64.515625 L 17.742188 68.6875 L 16.660156 67.601562 C 15.707031 66.652344 14.445312 66.128906 13.097656 66.128906 C 10.324219 66.128906 8.066406 68.386719 8.066406 71.164062 C 8.066406 72.488281 8.601562 73.785156 9.539062 74.722656 L 10.621094 75.804688 L 2.808594 83.617188 C 1 85.429688 0 87.839844 0 90.402344 C 0 95.695312 4.304688 100 9.597656 100 C 12.160156 100 14.570312 99 16.382812 97.1875 L 24.195312 89.378906 L 25.277344 90.460938 C 26.226562 91.414062 27.492188 91.933594 28.835938 91.933594 C 31.613281 91.933594 33.871094 89.675781 33.871094 86.902344 C 33.871094 85.574219 33.332031 84.277344 32.398438 83.339844 L 31.3125 82.257812 L 35.484375 78.085938 L 36.566406 79.171875 C 37.519531 80.121094 38.78125 80.644531 40.128906 80.644531 C 42.902344 80.644531 45.160156 78.386719 45.160156 75.609375 C 45.160156 74.285156 44.625 72.988281 43.6875 72.050781 L 42.601562 70.96875 L 46.773438 66.796875 L 47.859375 67.878906 C 48.808594 68.832031 50.074219 69.355469 51.417969 69.355469 C 54.195312 69.355469 56.453125 67.097656 56.453125 64.320312 C 56.453125 62.996094 55.914062 61.699219 54.976562 60.761719 L 53.894531 59.675781 L 58.066406 55.507812 L 59.148438 56.589844 C 60.097656 57.542969 61.363281 58.066406 62.707031 58.066406 C 65.484375 58.066406 67.742188 55.804688 67.742188 53.03125 C 67.742188 51.703125 67.203125 50.40625 66.269531 49.472656 L 65.183594 48.386719 L 69.355469 44.214844 L 72.355469 47.214844 L 88.085938 37.203125 C 90.496094 35.671875 91.933594 33.050781 91.933594 30.195312 C 91.933594 28.699219 91.511719 27.277344 90.777344 26.019531 L 96.519531 20.277344 C 98.765625 18.035156 100 15.050781 100 11.878906 Z M 14.101562 94.90625 C 12.898438 96.109375 11.296875 96.773438 9.597656 96.773438 C 6.082031 96.773438 3.226562 93.917969 3.226562 90.402344 C 3.226562 88.703125 3.890625 87.101562 5.09375 85.898438 L 12.902344 78.085938 L 21.914062 87.097656 Z M 28.835938 88.710938 C 28.351562 88.710938 27.898438 88.523438 27.558594 88.179688 L 11.820312 72.441406 C 11.484375 72.105469 11.289062 71.640625 11.289062 71.164062 C 11.289062 70.167969 12.101562 69.355469 13.097656 69.355469 C 13.582031 69.355469 14.035156 69.542969 14.378906 69.882812 L 30.117188 85.621094 C 30.453125 85.960938 30.644531 86.425781 30.644531 86.902344 C 30.644531 87.898438 29.832031 88.710938 28.835938 88.710938 Z M 29.03125 79.976562 L 20.023438 70.96875 L 24.195312 66.796875 L 33.203125 75.804688 Z M 40.128906 77.417969 C 39.644531 77.417969 39.191406 77.230469 38.847656 76.890625 L 23.109375 61.152344 C 22.773438 60.816406 22.582031 60.347656 22.582031 59.871094 C 22.582031 58.875 23.390625 58.066406 24.390625 58.066406 C 24.871094 58.066406 25.324219 58.253906 25.667969 58.59375 L 41.40625 74.332031 C 41.742188 74.667969 41.933594 75.136719 41.933594 75.609375 C 41.933594 76.609375 41.125 77.417969 40.128906 77.417969 Z M 40.324219 68.6875 L 31.3125 59.675781 L 35.484375 55.507812 L 44.492188 64.515625 Z M 51.417969 66.128906 C 50.933594 66.128906 50.480469 65.941406 50.136719 65.601562 L 34.398438 49.863281 C 34.066406 49.523438 33.871094 49.058594 33.871094 48.582031 C 33.871094 47.585938 34.683594 46.773438 35.679688 46.773438 C 36.164062 46.773438 36.617188 46.960938 36.957031 47.304688 L 52.695312 63.042969 C 53.03125 63.378906 53.226562 63.84375 53.226562 64.320312 C 53.226562 65.316406 52.414062 66.128906 51.417969 66.128906 Z M 51.613281 57.398438 L 42.601562 48.386719 L 46.773438 44.214844 L 55.785156 53.226562 Z M 62.707031 54.839844 C 62.222656 54.839844 61.769531 54.652344 61.429688 54.308594 L 45.691406 38.570312 C 45.355469 38.234375 45.160156 37.769531 45.160156 37.292969 C 45.160156 36.296875 45.972656 35.484375 46.96875 35.484375 C 47.453125 35.484375 47.90625 35.671875 48.25 36.011719 L 63.988281 51.75 C 64.324219 52.089844 64.515625 52.554688 64.515625 53.03125 C 64.515625 54.027344 63.703125 54.839844 62.707031 54.839844 Z M 62.902344 46.105469 L 53.894531 37.097656 L 58.066406 32.925781 L 67.074219 41.933594 Z M 56.894531 27.191406 L 63.902344 16.183594 L 83.816406 36.097656 L 72.808594 43.105469 Z M 86.578125 34.296875 L 65.703125 13.421875 C 66.660156 12.09375 68.15625 11.289062 69.804688 11.289062 C 71.164062 11.289062 72.441406 11.820312 73.402344 12.78125 L 87.21875 26.597656 C 88.179688 27.558594 88.710938 28.835938 88.710938 30.195312 C 88.710938 31.84375 87.90625 33.34375 86.578125 34.296875 Z M 88.710938 23.527344 L 76.472656 11.289062 L 82.003906 5.757812 C 83.636719 4.125 85.8125 3.226562 88.121094 3.226562 C 92.894531 3.226562 96.773438 7.105469 96.773438 11.878906 C 96.773438 14.1875 95.875 16.363281 94.242188 17.996094 Z M 88.710938 23.527344 "/>
<path style=" stroke:none;fill-rule:nonzero;fill:rgb(0%,0%,0%);fill-opacity:1;" d="M 88.710938 6.453125 C 86.042969 6.453125 83.871094 8.621094 83.871094 11.289062 C 83.871094 13.957031 86.042969 16.128906 88.710938 16.128906 C 91.378906 16.128906 93.546875 13.957031 93.546875 11.289062 C 93.546875 8.621094 91.378906 6.453125 88.710938 6.453125 Z M 88.710938 12.902344 C 87.820312 12.902344 87.097656 12.179688 87.097656 11.289062 C 87.097656 10.402344 87.820312 9.675781 88.710938 9.675781 C 89.597656 9.675781 90.324219 10.402344 90.324219 11.289062 C 90.324219 12.179688 89.597656 12.902344 88.710938 12.902344 Z M 88.710938 12.902344 "/>
</g>
</svg>
